<?xml version="1.0" encoding="UTF-8"?>
<svg id="Warstwa_2" data-name="Warstwa 2" xmlns="http://www.w3.org/2000/svg" viewBox="0 0 56.26 59.21">
  <defs>
    <style>
      .cls-1 {
        fill: #e24a94;
      }
    </style>
  </defs>
  <g id="Warstwa_1-2" data-name="Warstwa 1">
    <path class="cls-1" d="M23.23,41.09c.02,7.41,5.83,17.08,14.34,15.41,6.28-1.23,10.1-8.38,10.56-14.31-4.9-1.01-6.99-6.86-3.84-10.81,2.88-3.6,8.55-3.22,10.97.7s.07,9.37-4.58,10.19c-.58,7-4.97,15.01-12.29,16.63-10.33,2.3-17.58-8.57-17.71-17.74-9.01-.58-15.89-8.79-18.87-16.71C-.96,17.09-1.42,5.17,6.82,1.11c5.43-2.67,11.54-.12,15.82,3.47,1.56-1.26,3.22-2.43,5.07-3.24,8.16-3.61,15.37.39,17.17,8.93,2.03,9.63-3.2,21.54-10.99,27.3-3.02,2.23-6.83,3.89-10.66,3.51ZM32.82,2.54c-3.04.22-5.85,1.84-8.19,3.68-.06.04-.11.1-.1.17,0,.1,1.13,1.3,1.3,1.51,5.54,6.86,9.22,17.97,5.37,26.43-.5,1.09-1.2,2.04-1.83,3.04,7.39-3.65,12.63-12.51,13.35-20.62.58-6.52-1.89-14.8-9.9-14.22ZM22.58,8.15c-4,4.24-6.83,10.11-7.45,15.95-.54,5.02.63,11.82,5.9,13.93,1.42.57,1.96.53,3.36-.07,3.16-1.35,4.9-4.61,5.53-7.85,1.25-6.48-1.15-13.86-4.89-19.13-.27-.38-2.19-2.87-2.44-2.83ZM48.94,31.43c-5.18.59-4.59,8.7.8,8.42s5.11-9.09-.8-8.42Z"/>
  </g>
</svg>
